<svg width="219" height="40" viewBox="0 0 219 40" fill="none" xmlns="http://www.w3.org/2000/svg">
  <g clip-path="url(#clip0_606_12)">
    <path
      d="M46.64 30.14L46.4 12.59C46.4 11.31 48.99 10.67 54.17 10.67C56.61 10.67 58.65 11.13 60.29 12.05C61.95 12.97 62.78 14.29 62.78 16.01C62.78 17.15 62.34 18.23 61.46 19.25C60.58 20.27 59.59 20.92 58.49 21.2C59.87 21.62 61.06 22.23 62.06 23.03C63.08 23.83 63.59 24.87 63.59 26.15C63.59 27.43 63.04 28.56 61.94 29.54C59.82 31.4 56.56 32.33 52.16 32.33C48.48 32.33 46.64 31.6 46.64 30.14ZM48.59 21.29C49.83 20.81 51.2 20.57 52.7 20.57C53.4 20.57 54.1 20.57 54.8 20.57C55.86 20.57 57.14 20.1 58.64 19.16C60.16 18.2 60.92 17.29 60.92 16.43C60.92 15.15 60.12 14.14 58.52 13.4C56.92 12.64 55.15 12.26 53.21 12.26C51.27 12.26 49.7 12.48 48.5 12.92C48.5 13.28 48.5 13.81 48.5 14.51C48.5 15.19 48.51 16.33 48.53 17.93C48.57 19.51 48.59 20.63 48.59 21.29ZM61.4 26.15C61.4 24.41 59.52 23.14 55.76 22.34C53.84 22.9 52.02 23.18 50.3 23.18C49.74 23.18 49.19 23.15 48.65 23.09C48.71 25.47 48.74 27.89 48.74 30.35C49.9 30.61 51.07 30.74 52.25 30.74C53.45 30.74 54.51 30.67 55.43 30.53C56.37 30.37 57.3 30.13 58.22 29.81C59.16 29.49 59.92 29.01 60.5 28.37C61.1 27.73 61.4 26.99 61.4 26.15ZM67.6787 19.55C68.6987 17.99 70.1687 17.21 72.0887 17.21C74.0087 17.21 75.5387 17.99 76.6787 19.55C77.8387 21.11 78.4187 22.89 78.4187 24.89C78.4187 26.87 77.7887 28.55 76.5287 29.93C75.2687 31.31 73.6687 32 71.7287 32C69.7887 32 68.3787 31.46 67.4987 30.38C66.6187 29.28 66.1787 27.74 66.1787 25.76C66.1787 23.18 66.6787 21.11 67.6787 19.55ZM68.9987 21.14C68.7387 21.92 68.5387 22.7 68.3987 23.48C68.2787 24.26 68.2187 24.99 68.2187 25.67C68.2187 26.33 68.2687 26.94 68.3687 27.5C68.4687 28.04 68.6387 28.58 68.8787 29.12C69.1187 29.64 69.4787 30.06 69.9587 30.38C70.4387 30.68 71.0087 30.83 71.6687 30.83C73.0087 30.83 74.1287 30.28 75.0287 29.18C75.9487 28.08 76.4087 26.75 76.4087 25.19C76.4087 23.63 75.9887 22.12 75.1487 20.66C74.3287 19.18 73.3187 18.44 72.1187 18.44C71.3987 18.44 70.7687 18.69 70.2287 19.19C69.6887 19.69 69.2787 20.34 68.9987 21.14ZM82.3857 19.55C83.4057 17.99 84.8757 17.21 86.7957 17.21C88.7157 17.21 90.2457 17.99 91.3857 19.55C92.5457 21.11 93.1257 22.89 93.1257 24.89C93.1257 26.87 92.4957 28.55 91.2357 29.93C89.9757 31.31 88.3757 32 86.4357 32C84.4957 32 83.0857 31.46 82.2057 30.38C81.3257 29.28 80.8857 27.74 80.8857 25.76C80.8857 23.18 81.3857 21.11 82.3857 19.55ZM83.7057 21.14C83.4457 21.92 83.2457 22.7 83.1057 23.48C82.9857 24.26 82.9257 24.99 82.9257 25.67C82.9257 26.33 82.9757 26.94 83.0757 27.5C83.1757 28.04 83.3457 28.58 83.5857 29.12C83.8257 29.64 84.1857 30.06 84.6657 30.38C85.1457 30.68 85.7157 30.83 86.3757 30.83C87.7157 30.83 88.8357 30.28 89.7357 29.18C90.6557 28.08 91.1157 26.75 91.1157 25.19C91.1157 23.63 90.6957 22.12 89.8557 20.66C89.0357 19.18 88.0257 18.44 86.8257 18.44C86.1057 18.44 85.4757 18.69 84.9357 19.19C84.3957 19.69 83.9857 20.34 83.7057 21.14ZM98.5027 9.74C98.5227 11.14 98.5327 12.19 98.5327 12.89C98.5327 13.57 98.5227 14.25 98.5027 14.93C98.5027 15.61 98.4727 16.93 98.4127 18.89C98.3527 20.83 98.3127 22.37 98.2927 23.51C99.0527 22.99 99.9627 22.19 101.023 21.11C102.083 20.01 103.043 19.07 103.903 18.29C105.263 17.07 106.233 16.7 106.813 17.18C107.033 17.36 107.103 17.53 107.023 17.69C106.823 18.11 106.363 18.62 105.643 19.22C104.943 19.82 104.113 20.5 103.153 21.26C102.193 22.02 101.433 22.72 100.873 23.36C102.333 23.56 103.503 24.38 104.383 25.82C104.763 26.48 105.133 27.14 105.493 27.8C106.413 29.54 107.413 30.72 108.493 31.34C108.093 31.74 107.633 31.94 107.113 31.94C106.593 31.94 106.073 31.69 105.553 31.19C105.053 30.69 104.613 30.08 104.233 29.36C103.873 28.64 103.503 27.92 103.123 27.2C102.263 25.46 101.263 24.59 100.123 24.59C99.5827 24.59 99.1227 24.77 98.7427 25.13C98.3627 25.47 98.1727 25.83 98.1727 26.21C98.1727 28.61 98.1327 30.39 98.0527 31.55C97.7727 31.93 97.4727 32.12 97.1527 32.12C97.0527 32.12 96.9427 32.1 96.8227 32.06C96.3827 31.88 96.1627 31.51 96.1627 30.95C96.1827 30.39 96.2427 28.69 96.3427 25.85C96.5627 18.59 96.6727 13.95 96.6727 11.93C96.6727 10.99 96.7627 10.36 96.9427 10.04C97.1427 9.72 97.3727 9.56 97.6327 9.56C97.9127 9.56 98.2027 9.62 98.5027 9.74ZM117.577 20C117.397 19.54 117.057 19.18 116.557 18.92C116.057 18.66 115.437 18.53 114.697 18.53C113.957 18.53 113.257 18.75 112.597 19.19C111.957 19.63 111.637 20.22 111.637 20.96C111.637 21.7 111.937 22.29 112.537 22.73C113.157 23.15 113.897 23.47 114.757 23.69C115.637 23.91 116.517 24.15 117.397 24.41C118.277 24.65 119.017 25.06 119.617 25.64C120.237 26.2 120.547 26.94 120.547 27.86C120.547 29.2 119.987 30.22 118.867 30.92C117.767 31.62 116.437 31.97 114.877 31.97C113.957 31.97 112.747 31.72 111.247 31.22C109.767 30.72 109.027 30.12 109.027 29.42C109.027 28.9 109.467 28.64 110.347 28.64C110.607 28.64 110.947 28.8 111.367 29.12C112.647 30.06 113.957 30.53 115.297 30.53C116.017 30.53 116.637 30.41 117.157 30.17C118.117 29.71 118.597 28.97 118.597 27.95C118.597 27.33 118.287 26.83 117.667 26.45C117.067 26.07 116.327 25.77 115.447 25.55C114.587 25.33 113.717 25.09 112.837 24.83C111.957 24.57 111.207 24.14 110.587 23.54C109.987 22.92 109.687 22.14 109.687 21.2C109.687 19.98 110.237 18.99 111.337 18.23C112.437 17.47 113.797 17.09 115.417 17.09C116.517 17.09 117.507 17.38 118.387 17.96C119.287 18.52 119.737 19.34 119.737 20.42C119.737 21.14 119.327 21.5 118.507 21.5C118.167 21.5 117.937 21.44 117.817 21.32C117.717 21.2 117.657 20.99 117.637 20.69C117.637 20.37 117.617 20.14 117.577 20ZM123.294 25.79L123.564 12.35C123.564 11.31 123.504 10.6 123.384 10.22C123.744 9.9 124.294 9.74 125.034 9.74C125.334 11.88 125.484 14.63 125.484 17.99C125.484 18.99 125.394 21.31 125.214 24.95C126.154 19.89 127.834 17.36 130.254 17.36C131.114 17.36 131.774 17.82 132.234 18.74C132.714 19.64 133.014 20.74 133.134 22.04C133.254 23.34 133.354 24.64 133.434 25.94C133.634 29.06 134.194 30.62 135.114 30.62C135.134 30.62 135.324 30.56 135.684 30.44C136.484 30.2 136.934 30.14 137.034 30.26C137.034 30.48 136.724 30.76 136.104 31.1C135.484 31.42 134.914 31.58 134.394 31.58C133.514 31.58 132.834 31.13 132.354 30.23C131.894 29.31 131.604 28.2 131.484 26.9C131.384 25.6 131.304 24.31 131.244 23.03C131.204 21.73 131.074 20.63 130.854 19.73C130.634 18.81 130.264 18.35 129.744 18.35C129.104 18.35 128.514 19.05 127.974 20.45C127.454 21.83 127.044 23.36 126.744 25.04C126.444 26.72 126.074 28.26 125.634 29.66C125.214 31.04 124.784 31.73 124.344 31.73C123.644 31.73 123.294 29.75 123.294 25.79ZM139.292 25.91C139.252 26.31 139.232 26.58 139.232 26.72C139.232 27.92 139.592 28.85 140.312 29.51C141.052 30.17 141.922 30.5 142.922 30.5C143.922 30.5 144.732 30.36 145.352 30.08C145.992 29.8 146.452 29.5 146.732 29.18C147.452 28.28 148.112 27.83 148.712 27.83C148.932 27.83 149.192 27.89 149.492 28.01C149.292 28.99 148.532 29.89 147.212 30.71C145.912 31.51 144.272 31.91 142.292 31.91C140.892 31.91 139.682 31.47 138.662 30.59C137.662 29.69 137.162 28.47 137.162 26.93C137.162 25.39 137.462 23.9 138.062 22.46C138.682 21 139.562 19.76 140.702 18.74C141.862 17.7 143.032 17.18 144.212 17.18C145.412 17.18 146.372 17.43 147.092 17.93C147.832 18.41 148.202 19.12 148.202 20.06C148.202 21.8 147.422 23.24 145.862 24.38C144.322 25.5 142.682 26.06 140.942 26.06C140.482 26.06 139.932 26.01 139.292 25.91ZM141.572 24.92C142.512 24.92 143.352 24.62 144.092 24.02C144.832 23.42 145.352 22.79 145.652 22.13C145.972 21.47 146.132 20.87 146.132 20.33C146.132 19.79 145.922 19.32 145.502 18.92C145.082 18.5 144.592 18.29 144.032 18.29C143.032 18.29 142.102 18.98 141.242 20.36C140.402 21.74 139.802 23.17 139.442 24.65C140.322 24.83 141.032 24.92 141.572 24.92ZM152.932 14.06C152.932 12.08 152.662 10.75 152.122 10.07C152.382 9.69 152.832 9.5 153.472 9.5C153.592 9.5 153.722 9.51 153.862 9.53C154.362 10.03 154.612 11.48 154.612 13.88C154.612 15.18 154.552 16.69 154.432 18.41C154.192 21.41 154.072 23.61 154.072 25.01C154.072 28.79 154.802 30.68 156.262 30.68C156.262 30.68 156.632 30.61 157.372 30.47C157.552 30.47 157.702 30.55 157.822 30.71C157.762 31.43 157.172 31.79 156.052 31.79C154.952 31.79 154.102 31.46 153.502 30.8C152.902 30.12 152.522 29.28 152.362 28.28C152.222 27.26 152.152 26.42 152.152 25.76C152.152 25.1 152.162 24.38 152.182 23.6C152.202 22.8 152.292 21.66 152.452 20.18C152.772 17.18 152.932 15.14 152.932 14.06ZM157.68 17.57C157.86 17.19 158.25 17 158.85 17C159.11 17 159.33 17.06 159.51 17.18C160.07 18.72 160.62 20.27 161.16 21.83C162.18 24.69 163.13 26.95 164.01 28.61C164.43 26.17 165.24 23.71 166.44 21.23C167.66 18.75 168.77 17.51 169.77 17.51C170.07 17.51 170.37 17.58 170.67 17.72C168.37 20.74 166.72 24.74 165.72 29.72C165.52 30.88 165.3 31.54 165.06 31.7C164.8 31.88 164.53 31.97 164.25 31.97C163.97 31.97 163.75 31.91 163.59 31.79C163.45 31.67 163.34 31.55 163.26 31.43C163.2 31.31 163.11 31.11 162.99 30.83C162.89 30.55 162.81 30.36 162.75 30.26C160.71 26.44 159.02 22.21 157.68 17.57ZM173.511 25.91C173.471 26.31 173.451 26.58 173.451 26.72C173.451 27.92 173.811 28.85 174.531 29.51C175.271 30.17 176.141 30.5 177.141 30.5C178.141 30.5 178.951 30.36 179.571 30.08C180.211 29.8 180.671 29.5 180.951 29.18C181.671 28.28 182.331 27.83 182.931 27.83C183.151 27.83 183.411 27.89 183.711 28.01C183.511 28.99 182.751 29.89 181.431 30.71C180.131 31.51 178.491 31.91 176.511 31.91C175.111 31.91 173.901 31.47 172.881 30.59C171.881 29.69 171.381 28.47 171.381 26.93C171.381 25.39 171.681 23.9 172.281 22.46C172.901 21 173.781 19.76 174.921 18.74C176.081 17.7 177.251 17.18 178.431 17.18C179.631 17.18 180.591 17.43 181.311 17.93C182.051 18.41 182.421 19.12 182.421 20.06C182.421 21.8 181.641 23.24 180.081 24.38C178.541 25.5 176.901 26.06 175.161 26.06C174.701 26.06 174.151 26.01 173.511 25.91ZM175.791 24.92C176.731 24.92 177.571 24.62 178.311 24.02C179.051 23.42 179.571 22.79 179.871 22.13C180.191 21.47 180.351 20.87 180.351 20.33C180.351 19.79 180.141 19.32 179.721 18.92C179.301 18.5 178.811 18.29 178.251 18.29C177.251 18.29 176.321 18.98 175.461 20.36C174.621 21.74 174.021 23.17 173.661 24.65C174.541 24.83 175.251 24.92 175.791 24.92ZM193.691 20C193.511 19.54 193.171 19.18 192.671 18.92C192.171 18.66 191.551 18.53 190.811 18.53C190.071 18.53 189.371 18.75 188.711 19.19C188.071 19.63 187.751 20.22 187.751 20.96C187.751 21.7 188.051 22.29 188.651 22.73C189.271 23.15 190.011 23.47 190.871 23.69C191.751 23.91 192.631 24.15 193.511 24.41C194.391 24.65 195.131 25.06 195.731 25.64C196.351 26.2 196.661 26.94 196.661 27.86C196.661 29.2 196.101 30.22 194.981 30.92C193.881 31.62 192.551 31.97 190.991 31.97C190.071 31.97 188.861 31.72 187.361 31.22C185.881 30.72 185.141 30.12 185.141 29.42C185.141 28.9 185.581 28.64 186.461 28.64C186.721 28.64 187.061 28.8 187.481 29.12C188.761 30.06 190.071 30.53 191.411 30.53C192.131 30.53 192.751 30.41 193.271 30.17C194.231 29.71 194.711 28.97 194.711 27.95C194.711 27.33 194.401 26.83 193.781 26.45C193.181 26.07 192.441 25.77 191.561 25.55C190.701 25.33 189.831 25.09 188.951 24.83C188.071 24.57 187.321 24.14 186.701 23.54C186.101 22.92 185.801 22.14 185.801 21.2C185.801 19.98 186.351 18.99 187.451 18.23C188.551 17.47 189.911 17.09 191.531 17.09C192.631 17.09 193.621 17.38 194.501 17.96C195.401 18.52 195.851 19.34 195.851 20.42C195.851 21.14 195.441 21.5 194.621 21.5C194.281 21.5 194.051 21.44 193.931 21.32C193.831 21.2 193.771 20.99 193.751 20.69C193.751 20.37 193.731 20.14 193.691 20Z"
      fill="white" />
    <g clip-path="url(#clip1_606_12)">
      <path d="M13.0587 0L1.07983 14.5342L18.8085 35.4572L30.6276 21.5618L13.0587 0Z" fill="#564FCC" />
      <path opacity="0.1" d="M13.0587 0L1.07983 14.5342L18.8085 35.4572L30.6276 21.5618L13.0587 0Z" fill="black" />
      <path
        d="M1.55908 14.694C1.82404 14.217 2.15262 13.7783 2.53576 13.3898L13.5379 2.23601C13.5379 2.23601 17.3711 1.59714 18.1697 3.51375L4.11456 15.0134L1.55908 14.694Z"
        fill="#F2F2F2" />
      <path
        d="M1 14.4544L17.2911 39.3702C17.2911 39.3702 18.8883 40.4884 20.4854 39.8494L37.1758 28.5894L19.4474 1.75684L3.47562 14.2147L1 14.4544Z"
        fill="#564FCC" />
    </g>
  </g>
</svg>